<?xml version="1.0" encoding="UTF-8"?>
<svg width="464px" height="464px" viewBox="0 0 464 464" version="1.1" xmlns="http://www.w3.org/2000/svg" xmlns:xlink="http://www.w3.org/1999/xlink">
    <!-- Generator: Sketch 58 (84663) - https://sketch.com -->
    <title>knight-2</title>
    <desc>Created with Sketch.</desc>
    <g id="Page-1" stroke="none" stroke-width="1" fill="none" fill-rule="evenodd">
        <g id="knight-2" transform="translate(232.000000, 232.000000) scale(-1, 1) translate(-232.000000, -232.000000) " fill="#000000" fill-rule="nonzero">
            <path d="M64,296.984 C64,277.784 66.112,258.568 70.096,239.76 L61.2,232.136 C27.216,233.624 0,261.656 0,296 L0,304 L64,304 L64,296.984 Z" id="Path"></path>
            <path d="M184,237.368 L184,129.456 L191.2,128 C207.528,124.736 220.016,111.856 223.2,96 L128.8,96 C131.984,111.856 144.472,124.736 160.8,128 L161.592,128.16 L168,129.456 L168,237.368 C172.768,240.536 179.232,240.536 184,237.368 L184,237.368 Z" id="Path"></path>
            <path d="M274.776,224.8 L247.344,206.512 L195.256,249.128 C189.832,253.56 183,256 176,256 C169,256 162.168,253.56 156.744,249.128 L104.656,206.512 L77.224,224.8 L176,309.464 L274.776,224.8 Z" id="Path"></path>
            <path d="M52.104,359.12 C53.584,357.968 55.168,356.992 56.816,356.128 L20.688,320 L16,320 L16,340.688 L42.16,366.848 L52.104,359.12 Z" id="Path"></path>
            <path d="M317.472,239.216 C309.224,234.912 300.136,232.608 290.712,232.216 L281.92,239.752 C284.04,249.76 285.608,259.896 286.608,270.08 L317.472,239.216 Z" id="Path"></path>
            <polygon id="Path" points="224 380.688 423.32 181.368 419.088 160.224 211.312 368"></polygon>
            <path d="M152,142.184 C128.232,134.608 112,112.808 112,88 L112,80 L240,80 L240,88 C240,113.016 223.496,134.976 200,142.248 L200,224.576 L263.832,172.344 L257.336,22.96 C256.784,10.08 246.24,1.77635684e-15 233.36,1.77635684e-15 L118.64,1.77635684e-15 C105.76,1.77635684e-15 95.216,10.08 94.664,22.96 L88.16,172.344 L152,224.576 L152,142.184 Z M176,24 C184.84,24 192,31.16 192,40 C192,48.84 184.84,56 176,56 C167.16,56 160,48.84 160,40 C160,31.16 167.16,24 176,24 Z" id="Shape"></path>
            <path d="M176,330.536 L84.016,251.696 C81.368,266.648 80,281.824 80,296.984 L80,352.912 C83.592,353.648 87.072,354.912 90.24,356.816 L162.216,400 L172.688,400 L148.688,376 L184,340.688 L200,356.688 L271.664,285.024 C271.144,273.864 269.952,262.712 268,251.68 L176,330.536 Z" id="Path"></path>
            <polygon id="Path" points="16 387.2 29.44 376.752 16 363.312"></polygon>
            <polygon id="Path" points="235.312 392 248 404.688 455.776 196.912 434.632 192.68"></polygon>
            <polygon id="Path" points="336 339.312 288 387.312 288 404.688 336 356.688"></polygon>
            <polygon id="Path" points="336 379.312 323.88 391.432 336 386.584"></polygon>
            <path d="M344.584,400.384 L297.136,419.36 C281.864,425.472 272,440.048 272,456.496 L272,464 L352,464 L352,405.416 C352,401.736 347.944,399.032 344.584,400.384 L344.584,400.384 Z" id="Path"></path>
            <polygon id="Path" points="433.76 152 438.8 177.2 464 182.24 464 152"></polygon>
            <path d="M272,403.312 L259.312,416 L266.816,423.504 C268.392,421.344 270.12,419.304 272,417.384 L272,403.312 Z" id="Path"></path>
            <path d="M166.776,416 L160.4,454.24 C164.224,460.232 170.656,464 177.888,464 L208,464 C215.792,464 222.28,458.392 223.696,451.008 L188.688,416 L166.776,416 Z" id="Path"></path>
            <path d="M61.928,371.744 L1.488,418.752 C0.536,419.496 0,420.6 0,421.8 C0,423.72 1.384,425.32 3.28,425.608 L145.4,446.92 L151.208,412.056 L82,370.536 C75.872,366.848 67.576,367.36 61.928,371.744 L61.928,371.744 Z" id="Path"></path>
            <polygon id="Path" points="64 320 43.312 320 64 340.688"></polygon>
            <polygon id="Path" transform="translate(211.930828, 403.973172) rotate(-45.000000) translate(-211.930828, -403.973172) " points="202.960183 355.412506 220.901473 355.412506 220.901473 452.533838 202.960183 452.533838"></polygon>
        </g>
    </g>
</svg>