<?xml version="1.0" encoding="UTF-8"?>
<svg width="346px" height="512px" viewBox="0 0 346 512" version="1.1" xmlns="http://www.w3.org/2000/svg" xmlns:xlink="http://www.w3.org/1999/xlink">
    <!-- Generator: Sketch 58 (84663) - https://sketch.com -->
    <title>drop</title>
    <desc>Created with Sketch.</desc>
    <g id="Page-1" stroke="none" stroke-width="1" fill="none" fill-rule="evenodd">
        <g id="drop" fill-rule="nonzero">
            <path d="M324.582,255.529 L324.582,255.529 L187.611,8.613 C181.241,-2.87 164.728,-2.87 158.358,8.613 L21.388,255.529 L21.388,255.529 C-30.607,360.288 16.912,469.124 114.295,502.196 C130.807,508.115 148.555,511.573 167.179,511.96 C168.467,511.987 169.759,512 171.056,512 L171.057,512 C171.703,512 172.341,511.976 172.985,511.971 C173.629,511.977 174.266,512 174.913,512 L174.914,512 C176.211,512 177.502,511.986 178.791,511.96 C197.416,511.573 215.163,508.114 231.675,502.196 C329.895,468.839 376.317,359.764 324.582,255.529 Z" id="Path" fill="#358EFF"></path>
            <path d="M106.398,284.336 L170.42,9.328 C171.305,5.529 173.333,2.466 175.983,0.27 C169.35,-0.914 162.102,1.862 158.358,8.612 L21.388,255.529 C-30.607,360.288 16.912,469.124 114.296,502.196 C130.808,508.114 148.556,511.573 167.18,511.96 C168.468,511.987 169.759,512 171.057,512 L171.057,512 C171.703,512 172.341,511.977 172.985,511.971 C173.629,511.977 174.266,512 174.912,512 L174.913,512 C176.21,512 177.501,511.986 178.79,511.96 C197.415,511.573 215.162,508.114 231.674,502.196 C237.955,500.063 244.022,497.615 249.868,494.884 C154.144,482.784 86.063,394.232 106.398,284.336 Z" id="Path" fill="#005BD1"></path>
        </g>
    </g>
</svg>