<svg id="Capa_1" enable-background="new 0 0 497 497" height="512" viewBox="0 0 497 497" width="512" xmlns="http://www.w3.org/2000/svg"><g><g><g><path d="m356.973 121.235v-80.147l-108.473-10-108.473 10v80.148c0 47.687 30.774 88.182 73.544 102.719 10.524 3.577 17.62 13.43 17.62 24.545 0 11.115-7.096 20.968-17.62 24.545-42.771 14.538-73.544 55.032-73.544 102.719v80.148l103.524 10 113.421-10v-80.148c0-47.687-30.774-88.181-73.544-102.719-10.524-3.577-17.62-13.43-17.62-24.545 0-11.115 7.096-20.968 17.62-24.545 42.771-14.538 73.545-55.033 73.545-102.72z" fill="#f1f1f1"/></g></g><g><g><path d="m312.439 101.904c-36.21-2.994-63.612 29.55-99.912 26.441-12.584-1.078-25.594-4.734-37.383-9.638-1.809-.752-3.797.569-3.797 2.528 0 42.61 34.542 77.153 77.153 77.153 42.61 0 77.153-34.542 77.153-77.153v-10.907c0-3.492-2.438-6.477-5.84-7.266-2.398-.556-4.855-.95-7.374-1.158z" fill="#ffe07d"/></g></g><g><g><path d="m325.562 455.683c-1.882-40.938-35.659-73.552-77.062-73.552-41.403 0-75.18 32.614-77.062 73.552z" fill="#ffe07d"/></g></g><g><g><path d="m283.428 223.955c42.771-14.538 73.544-55.032 73.544-102.719v-80.148l-14.058-10-15.942 10v80.148c0 47.687-30.774 88.181-73.544 102.719-10.524 3.577-17.62 13.43-17.62 24.545s7.096 20.969 17.62 24.546c42.771 14.538 73.544 55.032 73.544 102.719v80.148l16.773 10 13.227-10v-80.148c0-47.687-30.774-88.181-73.544-102.719-10.524-3.577-17.62-13.431-17.62-24.546s7.097-20.969 17.62-24.545z" fill="#e3e0e4"/></g></g><g><g><path d="m319.813 103.062c-2.398-.556-4.856-.95-7.374-1.158-7.207-.596-14.061.23-20.709 1.888 2.363 1.281 3.923 3.745 3.923 6.536v10.907c0 37.476-26.724 68.701-62.153 75.683 4.853.957 9.866 1.469 15 1.469h.001c42.61 0 77.153-34.542 77.153-77.153v-10.907c-.001-3.49-2.439-6.475-5.841-7.265z" fill="#ffd064"/></g></g><g><g><path d="m248.5 382.131c-5.133 0-10.148.504-15 1.46 34.287 6.757 60.413 36.229 62.062 72.092h30c-1.882-40.937-35.659-73.552-77.062-73.552z" fill="#ffd064"/></g></g><g><g><path d="m248.5 323.509c-4.142 0-7.5-3.358-7.5-7.5v-19.096c0-4.142 3.358-7.5 7.5-7.5s7.5 3.358 7.5 7.5v19.096c0 4.142-3.358 7.5-7.5 7.5z" fill="#ffd064"/></g></g><g><g><path d="m256 383.201v-24.888c0-4.142-3.358-7.5-7.5-7.5s-7.5 3.358-7.5 7.5v24.888z" fill="#ffd064"/></g></g><g><g><path d="m380.968 0h-264.937c-5.781 0-10.468 4.687-10.468 10.468v1.732c0 15.954 12.934 28.888 28.888 28.888h228.097c15.954 0 28.888-12.934 28.888-28.888v-1.732c.001-5.781-4.686-10.468-10.468-10.468z" fill="#bd96e4"/></g></g><g><g><path d="m380.968 0h-30c5.781 0 10.468 4.687 10.468 10.468v1.732c0 15.954-12.934 28.888-28.888 28.888h30c15.954 0 28.888-12.934 28.888-28.888v-1.731c.001-5.782-4.686-10.469-10.468-10.469z" fill="#ad7fdd"/></g></g><g><g><path d="m380.968 497h-264.937c-5.781 0-10.468-4.687-10.468-10.468v-1.732c0-15.954 12.934-28.888 28.888-28.888h228.097c15.954 0 28.888 12.934 28.888 28.888v1.732c.001 5.781-4.686 10.468-10.468 10.468z" fill="#bd96e4"/></g></g><g><g><path d="m362.549 455.912h-30c15.954 0 28.888 12.934 28.888 28.888v1.732c0 5.781-4.687 10.468-10.468 10.468h30c5.781 0 10.468-4.687 10.468-10.468v-1.732c0-15.954-12.934-28.888-28.888-28.888z" fill="#ad7fdd"/></g></g></g></svg>