<svg height="512" viewBox="0 0 512 512" width="512" xmlns="http://www.w3.org/2000/svg"><g id="Snowflake-5" data-name="Snowflake"><g id="Filled"><path d="m300 176 44 80-44 80h-88l-44-80 44-80z" fill="#e0f7fa"/><path d="m208.8 330.183 3.2 5.817h88l44-80-30.533-55.514a252.739 252.739 0 0 1 -104.667 129.697z" fill="#b2ebf2"/><path d="m229.738 304-29.738-48 29.738-48h52.524l29.738 48-29.738 48z" fill="#80deea"/><g fill="#b2ebf2"><path d="m376.842 327.828 16.751 38.362 62.345 8.394-37.411-50.575z"/><path d="m133.869 327.828-16.75 38.362-62.346 8.394 37.411-50.575z"/><path d="m376.842 183.172 16.751-38.362 62.345-8.394-37.411 50.575z"/><path d="m133.869 183.172-16.75-38.362-62.346-8.394 37.411 50.575z"/><path d="m256 128 32-88-32-32-32 32z"/><path d="m256 384 32 88-32 32-32-32z"/><circle cx="156" cy="84" r="20"/><circle cx="356" cy="84" r="20"/><circle cx="156" cy="428" r="20"/><circle cx="356" cy="428" r="20"/><path d="m128 256-88-32-32 32 32 32z"/><path d="m384 256 88 32 32-32-32-32z"/></g><path d="m243.758 304h38.5l29.742-48-13.469-21.74a252.944 252.944 0 0 1 -54.773 69.74z" fill="#4dd0e1"/><circle cx="240" cy="232" fill="#e0f7fa" r="16"/><circle cx="244" cy="276" fill="#e0f7fa" r="12"/><circle cx="244" cy="36" fill="#e0f7fa" r="12"/><circle cx="36" cy="244" fill="#e0f7fa" r="12"/><circle cx="428" cy="252" fill="#e0f7fa" r="12"/></g><g id="Outline"><circle cx="279.81" cy="208" r="8"/><path d="m291.02 237.33.01.01 11.56 18.66-24.78 40h-43.16c-.15 0-.3 0-.45.01l-24.79-40.01 24.78-40h13.62a8 8 0 0 0 0-16h-18.07a7.933 7.933 0 0 0 -6.8 3.79l-29.74 48a7.943 7.943 0 0 0 0 8.42l29.74 48a7.96 7.96 0 0 0 6.81 3.79 8.076 8.076 0 0 0 2.44-.38 8.156 8.156 0 0 0 2.46.38h47.61a7.955 7.955 0 0 0 6.8-3.79l29.74-48a7.943 7.943 0 0 0 0-8.42l-14.18-22.89a8 8 0 0 0 -13.6 8.43z"/><path d="m234 38a8.024 8.024 0 1 0 -5.65-2.35 7.958 7.958 0 0 0 5.65 2.35z"/><path d="m156 112a28 28 0 1 0 -28-28 28.032 28.032 0 0 0 28 28zm0-40a12 12 0 1 1 -12 12 12.013 12.013 0 0 1 12-12z"/><path d="m356 112a28 28 0 1 0 -28-28 28.032 28.032 0 0 0 28 28zm0-40a12 12 0 1 1 -12 12 12.013 12.013 0 0 1 12-12z"/><path d="m156 400a28 28 0 1 0 28 28 28.032 28.032 0 0 0 -28-28zm0 40a12 12 0 1 1 12-12 12.013 12.013 0 0 1 -12 12z"/><path d="m356 400a28 28 0 1 0 28 28 28.032 28.032 0 0 0 -28-28zm0 40a12 12 0 1 1 12-12 12.013 12.013 0 0 1 -12 12z"/><path d="m509.02 250.97a8 8 0 0 0 -11.31 0l-27.76 27.77-62.54-22.74 50.55-18.38a8 8 0 0 0 -5.47-15.04l-70.817 25.753h-32.759l-15.957-29.012 68.007 6.23q.372.033.739.033a8 8 0 0 0 .721-15.967l-48.042-4.4 22.683-13.991 40.732 3.732q.367.033.731.033a8 8 0 0 0 6.431-3.242l37.411-50.575a8 8 0 0 0 -7.5-12.687l-62.346 8.394a8 8 0 0 0 -6.264 4.727l-15.028 34.416-23.9 14.739 18.669-42.754a8 8 0 0 0 -14.663-6.4l-27.048 61.953-15.19-27.623 27.586-46.987a8 8 0 1 0 -13.8-8.1l-27.686 47.148h-31.2v-38.59l31.52-86.68a8.039 8.039 0 0 0 -1.86-8.39l-31.37-31.37a8 8 0 1 0 -11.32 11.32l27.77 27.76-22.74 62.54-18.38-50.55a8 8 0 0 0 -15.04 5.47v.01l25.42 69.89v38.59h-31.2l-27.681-47.149a8 8 0 1 0 -13.8 8.1l27.581 46.988-15.911 28.929-27.623-63.261a8 8 0 0 0 -14.663 6.4l18.459 42.274-24.126-15.264-14.586-33.409a8 8 0 0 0 -6.264-4.727l-62.346-8.394a8 8 0 0 0 -7.5 12.687l37.411 50.575a8 8 0 0 0 6.431 3.242q.363 0 .731-.033l41.678-3.819 22.184 14.037-48.488 4.441a8 8 0 0 0 .72 15.967c.245 0 .491-.011.74-.033l69.364-6.354-16.026 29.136h-32.758l-87.593-31.852a8.005 8.005 0 0 0 -8.391 1.862l-32 32a8 8 0 0 0 0 11.314l32 32a8 8 0 0 0 8.391 1.862l85.759-31.186h34.96l15.079 27.417-68.784-6.3a8 8 0 1 0 -1.46 15.934l47.194 4.323-23.621 13.9-38.947-3.568a8 8 0 0 0 -7.162 3.209l-37.411 50.578a8 8 0 0 0 7.5 12.687l62.346-8.394a8 8 0 0 0 6.264-4.727l15.782-36.143 23.5-13.834-19.027 43.576a8 8 0 1 0 14.663 6.4l27.38-62.7 16.151 29.37-27.586 46.987a8 8 0 1 0 13.8 8.1l27.686-47.148h31.2v38.59l-31.519 86.676a8 8 0 0 0 1.862 8.391l32 32a8 8 0 0 0 11.314 0l32-32a8 8 0 0 0 1.862-8.391l-31.519-86.676v-38.59h31.2l27.681 47.149a8 8 0 1 0 13.8-8.1l-27.581-46.988 15.433-28.061 26.81 61.4a8 8 0 0 0 14.663-6.4l-19.206-44 23.3 13.369 16.167 37.027a8 8 0 0 0 6.264 4.727l62.346 8.394a8 8 0 0 0 7.5-12.687l-37.411-50.575a8 8 0 0 0 -7.162-3.209l-37.943 3.477-24.147-13.857 46.717-4.279a8 8 0 1 0 -1.46-15.934l-67.428 6.177 15.011-27.293h34.96l85.756 31.183a8.012 8.012 0 0 0 8.39-1.86l31.36-31.37a8.015 8.015 0 0 0 0-11.32zm-109.9-98.833 39.132-5.268-23.482 31.744-26.165-2.4zm-303.182 26.476-23.482-31.744 39.133 5.268 10.511 24.079zm-53.884 100.128-22.741-22.741 22.741-22.741 62.537 22.741zm69.535 80.122-39.133 5.268 23.482-31.744 26.165 2.4zm303.184-26.476 23.482 31.744-39.132-5.268-10.515-24.079zm-136.032 137.559-22.741 22.741-22.741-22.741 22.741-62.537zm16.529-141.946h-78.54l-39.6-72 39.6-72h78.54l39.6 72z"/><path d="m482 242a8.006 8.006 0 1 0 -5.65-2.34 7.949 7.949 0 0 0 5.65 2.34z"/></g></g></svg>