<?xml version="1.0" encoding="UTF-8"?>
<svg width="431px" height="424px" viewBox="0 0 431 424" version="1.1" xmlns="http://www.w3.org/2000/svg" xmlns:xlink="http://www.w3.org/1999/xlink">
    <!-- Generator: Sketch 58 (84663) - https://sketch.com -->
    <title>warrior</title>
    <desc>Created with Sketch.</desc>
    <g id="Page-1" stroke="none" stroke-width="1" fill="none" fill-rule="evenodd">
        <g id="warrior" fill-rule="nonzero">
            <g transform="translate(215.500000, 212.500000) scale(-1, 1) translate(-215.500000, -212.500000) ">
                <path d="M377.132812,320.773438 L357.820312,320.773438 C350.355469,304.710938 333.210938,293.464844 313.226562,293.464844 L248.113281,293.464844 L248.113281,238.851562 L161.484375,238.851562 L161.484375,293.464844 L102.652344,293.464844 C81.585938,293.464844 63.316406,304.542969 54.121094,320.773438 L32.464844,320.773438 C18.304688,320.773438 6.828125,332.25 6.828125,346.410156 L6.828125,416.34375 L402.773438,416.34375 L402.773438,346.410156 C402.773438,332.253906 391.292969,320.773438 377.132812,320.773438 L377.132812,320.773438 Z" id="Path" fill="#FFD578"></path>
                <path d="M402.773438,423.171875 L6.828125,423.171875 C3.054688,423.171875 0,420.117188 0,416.34375 L0,346.410156 C0,328.507812 14.5625,313.945312 32.464844,313.945312 L50.304688,313.945312 C61.539062,297.003906 81.226562,286.640625 102.652344,286.640625 L154.660156,286.640625 L154.660156,238.851562 C154.660156,235.082031 157.714844,232.027344 161.488281,232.027344 L248.113281,232.027344 C251.882812,232.027344 254.941406,235.082031 254.941406,238.851562 L254.941406,286.640625 L313.226562,286.640625 C333.6875,286.640625 352.339844,297.222656 361.960938,313.945312 L377.132812,313.945312 C395.035156,313.945312 409.601562,328.507812 409.601562,346.410156 L409.601562,416.34375 C409.601562,420.117188 406.542969,423.171875 402.773438,423.171875 Z M13.652344,409.519531 L395.945312,409.519531 L395.945312,346.410156 C395.945312,336.039062 387.507812,327.597656 377.132812,327.597656 L357.820312,327.597656 C355.164062,327.597656 352.75,326.058594 351.628906,323.648438 C345.035156,309.460938 329.960938,300.292969 313.226562,300.292969 L248.113281,300.292969 C244.34375,300.292969 241.285156,297.234375 241.285156,293.464844 L241.285156,245.679688 L168.3125,245.679688 L168.3125,293.464844 C168.3125,297.234375 165.257812,300.292969 161.488281,300.292969 L102.652344,300.292969 C84.710938,300.292969 68.390625,309.429688 60.058594,324.136719 C58.847656,326.277344 56.578125,327.597656 54.121094,327.597656 L32.464844,327.597656 C22.09375,327.597656 13.652344,336.039062 13.652344,346.410156 L13.652344,409.519531 Z" id="Shape" fill="#54596E"></path>
                <path d="M361.8125,129.625 C361.8125,144.707031 349.585938,156.933594 334.507812,156.933594 C319.425781,156.933594 307.199219,144.707031 307.199219,129.625 C307.199219,114.542969 319.425781,102.320312 334.507812,102.320312 C349.585938,102.320312 361.8125,114.542969 361.8125,129.625 Z" id="Path" fill="#FFD578"></path>
                <path d="M334.507812,163.757812 C315.6875,163.757812 300.375,148.445312 300.375,129.625 C300.375,110.804688 315.6875,95.492188 334.507812,95.492188 C353.324219,95.492188 368.640625,110.804688 368.640625,129.625 C368.640625,148.445312 353.324219,163.757812 334.507812,163.757812 Z M334.507812,109.144531 C323.214844,109.144531 314.027344,118.332031 314.027344,129.625 C314.027344,140.917969 323.214844,150.105469 334.507812,150.105469 C345.800781,150.105469 354.988281,140.917969 354.988281,129.625 C354.988281,118.332031 345.800781,109.144531 334.507812,109.144531 L334.507812,109.144531 Z" id="Shape" fill="#54596E"></path>
                <path d="M102.398438,129.625 C102.398438,144.707031 90.175781,156.933594 75.09375,156.933594 C60.011719,156.933594 47.785156,144.707031 47.785156,129.625 C47.785156,114.542969 60.011719,102.320312 75.09375,102.320312 C90.175781,102.320312 102.398438,114.542969 102.398438,129.625 Z" id="Path" fill="#FFD578"></path>
                <path d="M75.09375,163.757812 C56.273438,163.757812 40.960938,148.445312 40.960938,129.625 C40.960938,110.804688 56.273438,95.492188 75.09375,95.492188 C93.914062,95.492188 109.226562,110.804688 109.226562,129.625 C109.226562,148.445312 93.914062,163.757812 75.09375,163.757812 Z M75.09375,109.144531 C63.800781,109.144531 54.613281,118.332031 54.613281,129.625 C54.613281,140.917969 63.800781,150.105469 75.09375,150.105469 C86.386719,150.105469 95.574219,140.917969 95.574219,129.625 C95.574219,118.332031 86.386719,109.144531 75.09375,109.144531 Z" id="Shape" fill="#54596E"></path>
                <path d="M175.28125,416.34375 L72.132812,305.007812 C68.058594,300.609375 71.175781,293.464844 77.171875,293.464844 L122.878906,293.464844 L205.085938,416.34375 L175.28125,416.34375 Z" id="Path" fill="#FFF35F"></path>
                <path d="M205.085938,423.171875 L175.28125,423.171875 C173.378906,423.171875 171.5625,422.378906 170.273438,420.984375 L67.125,309.644531 C63.363281,305.59375 62.402344,299.925781 64.617188,294.855469 C66.828125,289.789062 71.640625,286.640625 77.171875,286.640625 L122.878906,286.640625 C125.160156,286.640625 127.285156,287.777344 128.554688,289.667969 L210.757812,412.550781 C212.164062,414.644531 212.296875,417.339844 211.105469,419.5625 C209.921875,421.785156 207.609375,423.171875 205.085938,423.171875 L205.085938,423.171875 Z M178.261719,409.519531 L192.308594,409.519531 L119.234375,300.292969 L77.171875,300.292969 L178.261719,409.519531 Z" id="Shape" fill="#54596E"></path>
                <path d="M255.085938,416.34375 L358.234375,305.007812 C362.308594,300.609375 359.191406,293.464844 353.191406,293.464844 L307.488281,293.464844 L225.28125,416.34375 L255.085938,416.34375 Z" id="Path" fill="#FFF35F"></path>
                <path d="M255.085938,423.171875 L225.28125,423.171875 C222.757812,423.171875 220.445312,421.785156 219.261719,419.5625 C218.070312,417.339844 218.203125,414.640625 219.605469,412.550781 L301.8125,289.667969 C303.082031,287.777344 305.207031,286.640625 307.488281,286.640625 L353.191406,286.640625 C358.722656,286.640625 363.535156,289.792969 365.746094,294.855469 C367.960938,299.925781 367,305.59375 363.238281,309.644531 L260.089844,420.984375 C258.804688,422.378906 256.988281,423.171875 255.085938,423.171875 Z M238.058594,409.519531 L252.105469,409.519531 L353.226562,300.367188 L311.128906,300.300781 L238.058594,409.519531 Z" id="Shape" fill="#54596E"></path>
                <path d="M75.09375,236.691406 C75.09375,252.964844 88.492188,266.160156 105.023438,266.160156 L304.574219,266.160156 C321.105469,266.160156 334.507812,252.964844 334.507812,236.691406 L334.507812,122.4375 C334.507812,58.59375 284.078125,6.859375 221.914062,6.93732346 C210.484375,6.953125 198.871094,6.964844 187.441406,6.976562 C125.375,7.03125 75.09375,58.730469 75.09375,122.476562 L75.09375,236.691406 Z" id="Path" fill="#FFD578"></path>
                <path d="M304.574219,272.984375 L105.027344,272.984375 C84.757812,272.984375 68.265625,256.703125 68.265625,236.6875 L68.265625,122.476562 C68.265625,55.085938 121.726562,0.207031 187.4375,0.148438 L221.90625,0.109375 L222.058594,0.109375 C253.324219,0.109375 282.867188,12.421875 305.261719,34.789062 C328.523438,58.019531 341.332031,89.148438 341.332031,122.4375 L341.332031,236.6875 C341.332031,256.703125 324.84375,272.984375 304.574219,272.984375 Z M222.058594,13.761719 C222.015625,13.761719 221.96875,13.761719 221.925781,13.761719 L187.449219,13.800781 C129.257812,13.855469 81.921875,62.605469 81.921875,122.476562 L81.921875,236.691406 C81.921875,249.175781 92.285156,259.332031 105.027344,259.332031 L304.574219,259.332031 C317.3125,259.332031 327.679688,249.175781 327.679688,236.691406 L327.679688,122.4375 C327.679688,92.796875 316.292969,65.097656 295.617188,44.449219 C275.800781,24.660156 249.679688,13.761719 222.058594,13.761719 Z" id="Shape" fill="#54596E"></path>
                <path d="M213.183594,143.277344 L196.414062,143.277344 C178.511719,151.5 150.367188,177.203125 135.75,205.914062 C121.734375,233.445312 120.871094,263.746094 120.871094,284.066406 C120.871094,296.796875 131.191406,307.117188 143.925781,307.117188 L265.671875,307.117188 C278.402344,307.117188 288.726562,296.796875 288.726562,284.066406 C288.726562,263.746094 287.863281,233.449219 273.851562,205.921875 C259.238281,177.207031 231.089844,151.503906 213.183594,143.277344 Z" id="Path" fill="#FFFFFF"></path>
                <path d="M265.671875,313.945312 L143.925781,313.945312 C127.449219,313.945312 114.046875,300.542969 114.046875,284.066406 C114.046875,259.0625 115.902344,229.859375 129.664062,202.816406 C144.800781,173.085938 174.042969,146.042969 193.566406,137.074219 C194.457031,136.664062 195.433594,136.453125 196.414062,136.453125 L213.179688,136.453125 C214.164062,136.453125 215.136719,136.664062 216.03125,137.074219 C235.558594,146.042969 264.796875,173.089844 279.933594,202.824219 C293.695312,229.855469 295.550783,259.0625 295.550783,284.066406 C295.554688,300.542969 282.148438,313.945312 265.671875,313.945312 L265.671875,313.945312 Z M197.964844,150.105469 C180.894531,158.5625 155.097656,182.957031 141.832031,209.007812 C127.699219,236.777344 127.699219,268.714844 127.699219,284.066406 C127.699219,293.011719 134.980469,300.292969 143.925781,300.292969 L265.671875,300.292969 C274.621094,300.292969 281.898438,293.011719 281.898438,284.066406 C281.898438,268.71875 281.898438,236.777344 267.769531,209.019531 C254.507812,182.960938 228.703125,158.5625 211.640625,150.105469 L197.964844,150.105469 Z" id="Shape" fill="#54596E"></path>
                <path d="M170.667969,197.890625 C170.667969,216.742188 185.949219,232.027344 204.800781,232.027344 C223.652344,232.027344 238.933594,216.742188 238.933594,197.890625 L170.667969,197.890625 Z" id="Path" fill="#54596E" transform="translate(204.800781, 214.958984) scale(1, -1) translate(-204.800781, -214.958984) "></path>
                <path d="M204.800781,238.851562 C182.214844,238.851562 163.839844,220.476562 163.839844,197.890625 C163.839844,194.121094 166.898438,191.066406 170.667969,191.066406 L238.933594,191.066406 C242.703125,191.066406 245.761719,194.121094 245.761719,197.890625 C245.761719,220.480469 227.386719,238.851562 204.800781,238.851562 Z M178.355469,204.71875 C181.394531,216.484375 192.101562,225.199219 204.800781,225.199219 C217.5,225.199219 228.203125,216.484375 231.242188,204.71875 L178.355469,204.71875 Z" id="Shape" fill="#54596E" transform="translate(204.800781, 214.958984) scale(1, -1) translate(-204.800781, -214.958984) "></path>
                <path d="M218.453125,218.371094 C218.453125,214.601562 212.339844,211.546875 204.800781,211.546875 C197.257812,211.546875 191.148438,214.601562 191.148438,218.371094 C191.148438,222.140625 197.257812,225.199219 204.800781,225.199219 C212.339844,225.199219 218.453125,222.140625 218.453125,218.371094 Z" id="Path" fill="#FF927D" transform="translate(204.800781, 218.373047) scale(1, -1) translate(-204.800781, -218.373047) "></path>
                <path d="M170.667969,119.386719 C170.667969,125.039062 166.082031,129.625 160.425781,129.625 C154.769531,129.625 150.1875,125.039062 150.1875,119.386719 C150.1875,113.730469 154.769531,109.144531 160.425781,109.144531 C166.082031,109.144531 170.667969,113.730469 170.667969,119.386719 Z" id="Path" fill="#54596E"></path>
                <path d="M259.414062,119.386719 C259.414062,125.039062 254.828125,129.625 249.171875,129.625 C243.519531,129.625 238.933594,125.039062 238.933594,119.386719 C238.933594,113.730469 243.519531,109.144531 249.171875,109.144531 C254.828125,109.144531 259.414062,113.730469 259.414062,119.386719 Z" id="Path" fill="#54596E"></path>
                <path d="M259.414062,119.386719 C259.414062,125.039062 254.828125,129.625 249.171875,129.625 C243.519531,129.625 238.933594,125.039062 238.933594,119.386719 C238.933594,113.730469 243.519531,109.144531 249.171875,109.144531 C254.828125,109.144531 259.414062,113.730469 259.414062,119.386719 Z" id="Path" fill="#54596E"></path>
                <polygon id="Path" fill="#FFFFFF" points="382.292969 47.707031 348.160156 6.746094 314.027344 47.707031 314.027344 272.984375 382.292969 272.984375"></polygon>
                <path d="M382.292969,279.8125 L314.027344,279.8125 C310.257812,279.8125 307.199219,276.753906 307.199219,272.984375 L307.199219,47.707031 C307.199219,46.109375 307.761719,44.5625 308.785156,43.335938 L342.917969,2.375 C345.511719,-0.738281 350.808594,-0.738281 353.40625,2.375 L387.539062,43.335938 C388.5625,44.5625 389.121094,46.109375 389.121094,47.707031 L389.121094,272.984375 C389.121094,276.753906 386.0625,279.8125 382.292969,279.8125 Z M320.851562,266.160156 L375.464844,266.160156 L375.464844,50.175781 L348.160156,17.410156 L320.851562,50.175781 L320.851562,266.160156 Z" id="Shape" fill="#54596E"></path>
                <path d="M348.160156,252.503906 C344.390625,252.503906 341.332031,249.449219 341.332031,245.679688 L341.332031,13.570312 C341.332031,9.800781 344.390625,6.746094 348.160156,6.746094 C351.929688,6.746094 354.988281,9.800781 354.988281,13.570312 L354.988281,245.679688 C354.988281,249.449219 351.929688,252.503906 348.160156,252.503906 Z" id="Path" fill="#54596E"></path>
                <path d="M249,102 C236.302632,102 226,101.863274 226,101.694551 L226,91.3054487 C226,91.1367263 236.302632,91 249,91 C261.697371,91 272,91.1367263 272,91.3054487 L272,101.694551 C272,101.863274 261.697371,102 249,102 Z" id="Path" fill="#54596E" transform="translate(249.000000, 96.500000) rotate(-27.000000) translate(-249.000000, -96.500000) "></path>
                <path d="M161,102 C148.302632,102 138,101.863274 138,101.694551 L138,91.3054487 C138,91.1367263 148.302632,91 161,91 C173.697371,91 184,91.1367263 184,91.3054487 L184,101.694551 C184,101.863274 173.697371,102 161,102 Z" id="Path" fill="#54596E" transform="translate(161.000000, 96.500000) scale(-1, 1) rotate(-27.000000) translate(-161.000000, -96.500000) "></path>
                <polygon id="Path" fill="#FFF35F" points="273.066406 272.984375 423.253906 272.984375 423.253906 307.117188 273.066406 307.117188"></polygon>
                <path d="M423.253906,313.945312 L273.066406,313.945312 C269.296875,313.945312 266.238281,310.890625 266.238281,307.117188 L266.238281,272.984375 C266.238281,269.214844 269.296875,266.160156 273.066406,266.160156 L423.253906,266.160156 C427.023438,266.160156 430.078125,269.214844 430.078125,272.984375 L430.078125,307.117188 C430.078125,310.890625 427.023438,313.945312 423.253906,313.945312 Z M279.894531,300.292969 L416.425781,300.292969 L416.425781,279.8125 L279.894531,279.8125 L279.894531,300.292969 Z" id="Shape" fill="#54596E"></path>
                <path d="M348.160156,416.34375 C333.078125,416.34375 320.851562,404.121094 320.851562,389.039062 L320.851562,307.117188 L375.464844,307.117188 L375.464844,389.039062 C375.464844,404.121094 363.242188,416.34375 348.160156,416.34375 Z" id="Path" fill="#55A6FF"></path>
                <g id="Group" transform="translate(75.000000, 300.000000)" fill="#54596E">
                    <path d="M273.160156,123.171875 C254.339844,123.171875 239.027344,107.859375 239.027344,89.039062 L239.027344,7.117188 C239.027344,3.347656 242.082031,0.292969 245.851562,0.292969 L300.464844,0.292969 C304.238281,0.292969 307.292969,3.347656 307.292969,7.117188 L307.292969,89.039062 C307.292969,107.859375 291.980469,123.171875 273.160156,123.171875 Z M252.679688,13.945312 L252.679688,89.039062 C252.679688,100.332031 261.867188,109.519531 273.160156,109.519531 C284.453125,109.519531 293.640625,100.332031 293.640625,89.039062 L293.640625,13.945312 L252.679688,13.945312 Z" id="Shape"></path>
                    <path d="M273.160156,95.867188 L252.679688,95.867188 C248.910156,95.867188 245.851562,92.808594 245.851562,89.039062 C245.851562,85.269531 248.910156,82.210938 252.679688,82.210938 L273.160156,82.210938 C276.929688,82.210938 279.988281,85.269531 279.988281,89.039062 C279.988281,92.808594 276.929688,95.867188 273.160156,95.867188 Z" id="Path"></path>
                    <path d="M273.160156,68.558594 L252.679688,68.558594 C248.910156,68.558594 245.851562,65.503906 245.851562,61.730469 C245.851562,57.960938 248.910156,54.90625 252.679688,54.90625 L273.160156,54.90625 C276.929688,54.90625 279.988281,57.960938 279.988281,61.730469 C279.988281,65.503906 276.929688,68.558594 273.160156,68.558594 Z" id="Path"></path>
                    <path d="M273.160156,41.253906 L252.679688,41.253906 C248.910156,41.253906 245.851562,38.195312 245.851562,34.425781 C245.851562,30.65625 248.910156,27.597656 252.679688,27.597656 L273.160156,27.597656 C276.929688,27.597656 279.988281,30.65625 279.988281,34.425781 C279.988281,38.195312 276.929688,41.253906 273.160156,41.253906 Z" id="Path"></path>
                    <path d="M6.921875,123.171875 C3.148438,123.171875 0.09375,120.117188 0.09375,116.34375 L0.09375,82.210938 C0.09375,78.441406 3.148438,75.386719 6.921875,75.386719 C10.691406,75.386719 13.746094,78.441406 13.746094,82.210938 L13.746094,116.34375 C13.746094,120.117188 10.691406,123.171875 6.921875,123.171875 Z" id="Path"></path>
                </g>
                <polygon id="Path" fill="#FFF35F" points="174.078125 348.078125 249.171875 348.078125 286.71875 416.34375 136.535156 416.34375"></polygon>
                <path d="M286.71875,423.171875 L136.535156,423.171875 C134.121094,423.171875 131.886719,421.898438 130.65625,419.820312 C129.429688,417.742188 129.390625,415.167969 130.554688,413.054688 L168.101562,344.789062 C169.296875,342.609375 171.589844,341.253906 174.078125,341.253906 L249.171875,341.253906 C251.664062,341.253906 253.957031,342.609375 255.152344,344.789062 L292.699219,413.054688 C293.863281,415.167969 293.824219,417.742188 292.597656,419.820312 C291.367188,421.898438 289.132812,423.171875 286.71875,423.171875 Z M148.082031,409.519531 L275.175781,409.519531 L245.136719,354.90625 L178.117188,354.90625 L148.082031,409.519531 Z" id="Shape" fill="#54596E"></path>
            </g>
        </g>
    </g>
</svg>