<?xml version="1.0" encoding="UTF-8"?>
<svg width="436px" height="512px" viewBox="0 0 436 512" version="1.1" xmlns="http://www.w3.org/2000/svg" xmlns:xlink="http://www.w3.org/1999/xlink">
    <!-- Generator: Sketch 58 (84663) - https://sketch.com -->
    <title>wizard</title>
    <desc>Created with Sketch.</desc>
    <g id="Page-1" stroke="none" stroke-width="1" fill="none" fill-rule="evenodd">
        <g id="wizard" transform="translate(218.000000, 256.000000) scale(-1, 1) translate(-218.000000, -256.000000) " fill-rule="nonzero">
            <path d="M281.432,47.703 L295.856,47.703 C314.1,47.703 328.889,32.914 328.889,14.67 L328.889,7.5 L253.559,7.5 C245.36,7.5 238.053,12.67 235.324,20.401 L187.284,156.494 L319.835,156.494 L281.432,47.703 Z" id="Path" fill="#8993DA"></path>
            <polygon id="Path" fill="#F9F48E" points="187.283 156.495 175.46 189.989 331.658 189.989 319.834 156.495"></polygon>
            <path d="M336.375,233.168 L324.298,233.168 L323.145,248.817 L333.673,276.822 C344.261,272.633 351.751,262.304 351.751,250.226 L351.751,248.544 C351.751,240.052 344.867,233.168 336.375,233.168 Z" id="Path" fill="#EAAC9D"></path>
            <path d="M173.444,276.822 L183.972,248.817 L182.819,233.168 L170.742,233.168 C162.25,233.168 155.366,240.052 155.366,248.544 L155.366,250.226 C155.366,262.305 162.856,272.633 173.444,276.822 Z" id="Path" fill="#EAAC9D"></path>
            <path d="M317.499,296.056 C308.471,281.13 292.296,272.011 274.852,272.011 L232.266,272.011 C214.822,272.011 198.647,281.131 189.619,296.057 L186.576,301.088 L223.015,301.088 C233.332,301.088 243.603,299.717 253.559,297.011 C263.515,299.717 273.786,301.088 284.103,301.088 L320.542,301.088 L317.499,296.056 Z" id="Path" fill="#F1F1F4"></path>
            <path d="M284.103,301.088 C273.786,301.088 263.515,299.717 253.559,297.011 C243.603,299.717 233.332,301.088 223.015,301.088 L201.609,301.088 L210.989,328.887 C213.317,335.785 221.122,339.132 227.723,336.061 L243.579,328.686 C249.907,325.743 257.211,325.743 263.539,328.686 L279.395,336.061 C285.997,339.131 293.802,335.785 296.129,328.887 L305.508,301.088 L284.103,301.088 Z" id="Path" fill="#FFCBBE"></path>
            <path d="M182.82,233.168 L183.972,248.817 L196.799,286.833 C206.052,277.462 218.779,272.011 232.266,272.011 L274.852,272.011 C288.338,272.011 301.066,277.462 310.319,286.833 L323.146,248.817 L324.299,233.168 L182.82,233.168 Z" id="Path" fill="#FFCBBE"></path>
            <path d="M343.109,301.919 L323.146,248.816 L310.319,286.832 C313.034,289.582 315.451,292.669 317.499,296.056 L320.542,301.087 L305.509,301.087 L296.13,328.886 C293.802,335.785 285.997,339.131 279.396,336.06 L263.54,328.685 C257.212,325.742 249.908,325.742 243.58,328.685 L227.724,336.06 C221.122,339.13 213.317,335.784 210.99,328.886 L201.611,301.087 L186.578,301.087 L189.621,296.056 C191.669,292.669 194.086,289.582 196.801,286.832 L183.974,248.816 L164.011,301.919 C159.535,313.826 160.96,327.149 167.853,337.84 L253.561,470.775 L339.269,337.84 C346.16,327.149 347.585,313.826 343.109,301.919 Z" id="Path" fill="#DFDDE2"></path>
            <path d="M343.109,301.919 L323.146,248.816 L312.513,280.332 L313.11,281.919 C314.477,285.555 315.293,289.324 315.572,293.109 C316.246,294.064 316.89,295.047 317.5,296.056 L320.543,301.087 L315.364,301.087 C314.621,306.979 312.573,312.712 309.268,317.839 L232.111,437.51 L253.559,470.775 L339.267,337.84 C346.16,327.149 347.585,313.826 343.109,301.919 L343.109,301.919 Z" id="Path" fill="#C6C1C8"></path>
            <path d="M93.66,290.736 L59.218,290.736 C52.663,290.736 47.35,296.05 47.35,302.604 C47.35,309.159 52.664,314.472 59.218,314.472 L93.66,314.472 C100.215,314.472 105.528,309.158 105.528,302.604 C105.528,296.05 100.215,290.736 93.66,290.736 Z" id="Path" fill="#F9F48E"></path>
            <polygon id="Path" fill="#E2BCAF" points="62.764 314.473 90.114 314.473 90.114 504.5 62.764 504.5"></polygon>
            <path d="M76.439,192.97 C48.932,192.97 26.633,215.269 26.633,242.776 C26.633,265.612 42.002,284.858 62.96,290.736 L89.918,290.736 C110.876,284.858 126.245,265.612 126.245,242.776 C126.245,215.269 103.946,192.97 76.439,192.97 L76.439,192.97 Z" id="Path" fill="#D3EFFB"></path>
            <path d="M87.19,194.134 C92.895,202.236 96.246,212.115 96.246,222.776 C96.246,223.41 96.234,224.042 96.211,224.67 C95.243,250.541 73.378,270.736 47.489,270.736 L45.464,270.736 C41.666,270.736 37.958,270.301 34.391,269.48 C40.895,279.699 51.021,287.387 62.961,290.736 L89.919,290.736 C110.877,284.858 126.246,265.612 126.246,242.776 C126.245,218.96 109.529,199.049 87.19,194.134 Z" id="Path" fill="#B1E4F9"></path>
            <path d="M125.319,233.168 L395.341,233.168 L331.658,189.989 L175.46,189.989 L123.151,225.457 C124.071,227.94 124.8,230.516 125.319,233.168 Z" id="Path" fill="#8993DA"></path>
            <path d="M304.785,178.89 L318.091,187.912 C319.02,188.542 319.835,189.24 320.542,189.99 L331.658,189.99 L319.835,156.495 L286.922,156.495 C290.465,165.585 296.689,173.4 304.785,178.89 Z" id="Path" fill="#F6E738"></path>
            <path d="M331.658,189.989 L320.542,189.989 C328.414,198.337 322.831,213.168 310.336,213.168 L141.274,213.168 L123.15,225.456 C124.071,227.939 124.8,230.516 125.318,233.168 L395.34,233.168 L331.658,189.989 Z" id="Path" fill="#707DD3"></path>
            <path d="M286.304,7.5 C281.296,19.371 269.549,27.703 255.855,27.703 C248.814,27.703 243.889,34.665 246.232,41.304 C246.232,41.304 286.732,156.01 286.92,156.494 L319.833,156.494 L281.431,47.703 L295.855,47.703 C314.099,47.703 328.888,32.914 328.888,14.67 L328.888,7.5 L286.304,7.5 Z" id="Path" fill="#707DD3"></path>
            <path d="M410.604,411.033 C405.569,383.408 381.504,363.332 353.423,363.332 L322.831,363.332 L253.558,470.775 L184.285,363.332 L153.693,363.332 C125.613,363.332 101.547,383.407 96.512,411.033 L90.113,446.141 L90.113,504.501 L427.64,504.501 L410.604,411.033 Z" id="Path" fill="#8993DA"></path>
            <path d="M410.604,411.033 C405.81,384.727 383.759,365.267 357.418,363.469 C364.017,371.104 368.688,380.522 370.604,391.033 L376.77,424.864 C382.429,455.911 358.58,484.5 327.021,484.5 L90.114,484.5 L90.114,504.5 L427.64,504.5 L410.604,411.033 Z" id="Path" fill="#707DD3"></path>
            <path d="M44.328,290.232 C34.975,301.47 41.064,318.609 55.264,321.567 L55.264,330.646 C55.264,334.788 58.621,338.146 62.764,338.146 C66.907,338.146 70.264,334.788 70.264,330.646 L70.264,321.973 L82.614,321.973 L82.614,497 L70.264,497 L70.264,365.646 C70.264,361.504 66.907,358.146 62.764,358.146 C58.621,358.146 55.264,361.504 55.264,365.646 L55.264,504.5 C55.264,508.642 58.621,512 62.764,512 L427.64,512 C432.306,512 435.859,507.77 435.019,503.155 L417.983,409.688 C412.295,378.481 385.144,355.832 353.423,355.832 L336.59,355.832 L345.569,341.905 C353.711,329.278 355.415,313.343 350.128,299.28 L343.024,280.382 C353.067,273.805 359.251,262.614 359.251,250.226 C359.251,247.163 359.256,244.48 357.854,240.668 L395.34,240.668 C398.634,240.668 401.543,238.519 402.51,235.37 C403.477,232.221 402.276,228.809 399.549,226.961 L337.908,185.166 C321.853,139.687 308.074,100.651 292.031,55.203 L295.854,55.203 C318.204,55.203 336.387,37.02 336.387,14.67 L336.387,7.5 C336.387,3.358 333.03,-5.68434189e-14 328.887,-5.68434189e-14 L253.557,-5.68434189e-14 C242.201,-5.68434189e-14 232.031,7.195 228.249,17.904 C203.026,89.358 196.981,106.483 169.207,185.166 L126.178,214.341 C116.286,197.105 97.695,185.47 76.438,185.47 C44.839,185.47 19.131,211.178 19.131,242.776 C19.131,262.096 28.933,279.764 44.328,290.232 Z M59.219,306.973 C56.811,306.973 54.851,305.014 54.851,302.605 C54.851,300.196 56.811,298.237 59.219,298.237 L93.66,298.237 C96.068,298.237 98.028,300.196 98.028,302.605 C98.028,305.014 96.068,306.973 93.66,306.973 C82.055,306.973 69.226,306.973 59.219,306.973 L59.219,306.973 Z M332.963,333.776 C330.284,337.931 311.801,366.599 306.48,374.853 C304.236,378.334 305.239,382.976 308.719,385.221 C312.198,387.461 316.838,386.468 319.087,382.981 L326.92,370.831 L353.423,370.831 C377.893,370.831 398.837,388.304 403.225,412.377 L418.65,497 L365.237,497 L357.449,447.875 C356.802,443.785 352.971,440.992 348.867,441.642 C344.776,442.291 341.986,446.133 342.635,450.224 L350.05,497 L157.067,497 L164.483,450.224 C165.131,446.133 162.341,442.291 158.251,441.642 C154.153,440.996 150.317,443.785 149.669,447.875 L141.881,497 L97.614,497 L97.614,446.821 L103.892,412.378 C108.28,388.305 129.224,370.832 153.694,370.832 L180.197,370.832 C250.88,480.462 247.449,475.473 248.84,476.605 C252.025,479.183 256.673,478.715 259.292,475.61 C259.751,475.065 257.023,479.242 299.377,413.551 C301.621,410.07 300.618,405.428 297.138,403.184 C293.657,400.94 289.016,401.941 286.77,405.423 L272.701,427.244 L289.244,364.019 C290.293,360.012 287.893,355.914 283.887,354.865 C279.879,353.817 275.781,356.215 274.733,360.222 L253.558,441.147 L232.383,360.222 C231.335,356.215 227.241,353.814 223.229,354.865 C219.222,355.914 216.823,360.012 217.872,364.019 L234.415,427.243 C229.692,419.918 192.242,361.832 174.154,333.777 C168.574,325.121 167.406,314.199 171.03,304.559 L183.591,271.146 L188.289,285.071 C184.88,289.129 183.334,291.955 180.158,297.207 C177.144,302.192 180.733,308.588 186.576,308.588 L196.223,308.588 L203.881,331.284 C207.652,342.46 220.298,347.785 230.885,342.861 L246.74,335.486 C251.073,333.47 256.042,333.471 260.375,335.486 L276.231,342.861 C286.859,347.805 299.474,342.428 303.235,331.284 L310.892,308.588 L320.54,308.588 C326.367,308.588 329.98,302.205 326.958,297.207 C323.853,292.073 322.217,289.107 318.827,285.072 L323.525,271.146 L336.086,304.56 C339.712,314.199 338.544,325.121 332.963,333.776 L332.963,333.776 Z M162.866,250.226 L162.866,248.544 C162.866,244.201 166.399,240.668 170.742,240.668 L175.852,240.668 L176.371,247.721 L169.607,265.713 C165.376,261.807 162.866,256.259 162.866,250.226 L162.866,250.226 Z M274.852,279.511 C286.915,279.511 298.411,284.763 306.364,293.588 C297.917,293.588 288.788,293.588 284.103,293.588 C274.454,293.588 264.838,292.305 255.525,289.774 C254.24,289.424 252.878,289.423 251.591,289.774 C242.278,292.305 232.664,293.588 223.014,293.588 C218.415,293.588 209.218,293.588 200.753,293.588 C208.706,284.762 220.202,279.511 232.265,279.511 L274.852,279.511 Z M223.014,308.588 C233.315,308.588 243.579,307.303 253.558,304.766 C270.64,309.108 282.369,308.588 295.062,308.588 L289.022,326.488 C288.124,329.151 285.112,330.448 282.557,329.26 L266.7,321.884 C258.348,318 248.768,318 240.415,321.884 L224.559,329.259 C222.011,330.444 218.995,329.155 218.094,326.487 L212.054,308.586 L223.014,308.586 L223.014,308.588 Z M315.736,247.318 L306.666,274.199 C297.361,268 286.295,264.51 274.852,264.51 L270.692,264.51 C270.9,262.935 270.842,263.943 270.842,240.667 L316.225,240.667 L315.736,247.318 Z M255.843,262.228 C255.843,263.481 254.829,264.501 253.578,264.511 L232.266,264.511 C220.824,264.511 209.757,268.001 200.452,274.2 L191.382,247.319 L190.892,240.669 L255.842,240.669 L255.842,262.228 L255.843,262.228 Z M344.252,248.544 L344.252,250.226 C344.252,256.259 341.742,261.806 337.51,265.713 L330.746,247.721 L331.266,240.668 L336.375,240.668 C340.719,240.668 344.252,244.201 344.252,248.544 L344.252,248.544 Z M242.395,22.898 C244.063,18.174 248.55,15 253.558,15 L321.386,15 C321.209,28.928 309.823,40.203 295.855,40.203 L286.737,40.203 L283.688,31.565 C282.31,27.659 278.025,25.609 274.12,26.989 C270.214,28.368 268.165,32.652 269.544,36.558 C277.482,59.046 299.922,122.616 309.233,148.994 L298.895,148.994 C294.752,148.994 291.395,152.352 291.395,156.494 C291.395,160.636 294.752,163.994 298.895,163.994 L314.528,163.994 L321.057,182.488 L186.06,182.488 L192.589,163.994 L263.895,163.994 C268.038,163.994 271.395,160.636 271.395,156.494 C271.395,152.352 268.038,148.994 263.895,148.994 L197.883,148.994 L242.395,22.898 Z M177.763,197.489 L329.356,197.489 L370.916,225.668 C291.894,225.668 181.304,225.668 136.204,225.668 L177.763,197.489 Z M149.263,240.667 C147.825,244.577 147.866,247.456 147.866,250.226 C147.866,262.614 154.05,273.806 164.093,280.382 L156.989,299.28 C151.702,313.342 153.406,329.277 161.547,341.904 L170.526,355.831 L153.694,355.831 C130.211,355.831 109.234,368.245 97.614,387.353 L97.614,321.566 C111.815,318.609 117.903,301.469 108.55,290.231 C124.689,279.257 134.433,260.599 133.706,240.667 L149.263,240.667 L149.263,240.667 Z M76.439,200.47 C99.766,200.47 118.745,219.449 118.745,242.776 C118.745,261.337 106.499,277.832 88.843,283.236 L64.035,283.236 C46.379,277.832 34.133,261.336 34.133,242.776 C34.133,219.449 53.111,200.47 76.439,200.47 L76.439,200.47 Z" id="Shape" fill="#000000"></path>
            <path d="M76.439,225.47 C85.981,225.47 93.745,233.234 93.745,242.776 C93.745,246.918 97.102,250.276 101.245,250.276 C105.388,250.276 108.745,246.918 108.745,242.776 C108.745,224.963 94.253,210.47 76.439,210.47 C72.296,210.47 68.939,213.828 68.939,217.97 C68.939,222.112 72.297,225.47 76.439,225.47 L76.439,225.47 Z" id="Path" fill="#000000"></path>
            <path d="M76.439,170.47 C80.582,170.47 83.939,167.112 83.939,162.97 L83.939,146.494 C83.939,142.352 80.582,138.994 76.439,138.994 C72.296,138.994 68.939,142.352 68.939,146.494 L68.939,162.97 C68.939,167.112 72.297,170.47 76.439,170.47 Z" id="Path" fill="#000000"></path>
            <path d="M14.705,191.648 C17.632,194.577 22.382,194.577 25.311,191.648 C28.24,188.719 28.24,183.97 25.31,181.042 L13.66,169.392 C10.732,166.462 5.983,166.463 3.054,169.392 C0.125,172.321 0.125,177.07 3.055,179.998 L14.705,191.648 Z" id="Path" fill="#000000"></path>
            <path d="M138.175,191.648 L149.824,179.998 C152.753,177.069 152.753,172.32 149.823,169.392 C146.895,166.462 142.146,166.463 139.217,169.392 L127.568,181.042 C124.639,183.971 124.639,188.72 127.569,191.648 C130.495,194.577 135.245,194.577 138.175,191.648 Z" id="Path" fill="#000000"></path>
        </g>
    </g>
</svg>